<?xml version="1.0" encoding="UTF-8"?><svg xmlns="http://www.w3.org/2000/svg" viewBox="0 0 82.81 81.27"><defs><style>.d{fill:#58585e;stroke-miterlimit:10;}.d,.e{stroke:#57575d;}.f{fill:#57575d;}.g{fill:#fff;}.h{fill:#f086b0;}.e{fill:none;stroke-linecap:round;stroke-linejoin:round;}.i{fill:#fbd17d;}.j{fill:#f9cb6f;}.k{fill:#feedcd;}.l{fill:#ffe7ba;}.m{fill:#49a8df;}</style></defs><g id="a"/><g id="b"><g id="c"><g><path class="k" d="M76.53,50.56c.84-3.95,6.18-5.93,6.28-9.91,.12-4.48-5.73-5.46-6.77-9.34-.94-3.49,2.91-6.88,1.47-10.39-1.57-3.81-7.28-2.65-10.05-4.93-2.9-2.38-1.57-7.18-4.38-9.8-3.74-3.49-8.69,1.32-12.75-.28-3.25-1.28-4.77-5.38-8.47-5.87-.29-.04-.58-.05-.85-.05,.28,3.01-.21,6.2-.1,9.2,.05,1.44,.31,3.02,.09,4.49,7.1-.02,14.29,3.22,19.44,7.79,19.6,17.4,6.45,48.34-19.66,48.88,1.06,3.12,3.54,5.35,5.05,8.25,1.41-1.23,3.01-3.54,4.98-3.82,3.63-.53,6.78,2.78,10.73,1.29,4.69-1.76,2.67-7.56,5.84-10.34,2.74-2.4,7.93-1.43,9.88-4.79,1.9-3.28-1.44-7.05-.74-10.37Z"/><path class="k" d="M6.28,50.56C5.44,46.62,.1,44.63,0,40.66c-.12-4.48,5.73-5.46,6.77-9.34,.94-3.49-2.91-6.88-1.47-10.39,1.57-3.81,7.28-2.65,10.05-4.93,2.9-2.38,1.57-7.18,4.38-9.8,3.74-3.49,8.69,1.32,12.75-.28,3.25-1.28,4.77-5.38,8.47-5.87,.29-.04,.58-.05,.85-.05-.28,3.01,.21,6.2,.1,9.2-.05,1.44-.31,3.02-.09,4.49-7.1-.02-14.29,3.22-19.44,7.79-19.6,17.4-6.45,48.34,19.66,48.88-1.06,3.12-3.54,5.35-5.05,8.25-1.41-1.23-3.01-3.54-4.98-3.82-3.63-.53-6.78,2.78-10.73,1.29-4.69-1.76-2.67-7.56-5.84-10.34-2.74-2.4-7.93-1.43-9.88-4.79-1.9-3.28,1.44-7.05,.74-10.37Z"/><path class="k" d="M31.16,75.12c4.03,.82,6.06,6.05,10.12,6.15,4.58,.11,5.58-5.61,9.54-6.63,3.56-.92,7.03,2.85,10.61,1.44,3.89-1.53,2.71-7.13,5.03-9.84,2.43-2.83,7.33-1.53,10.01-4.29,3.57-3.66-1.35-8.51,.29-12.48,1.31-3.19,5.5-4.67,5.99-8.3,.04-.29,.05-.56,.05-.83-3.08,.27-6.33-.2-9.39-.09-1.47,.05-3.09,.3-4.59,.09,.02,6.95-3.29,13.99-7.95,19.03-17.77,19.19-49.37,6.32-49.93-19.25-3.19,1.04-5.46,3.47-8.42,4.95,1.26,1.38,3.61,2.95,3.91,4.88,.54,3.55-2.84,6.64-1.32,10.51,1.8,4.6,7.72,2.61,10.57,5.72,2.45,2.68,1.46,7.77,4.9,9.67,3.35,1.86,7.2-1.41,10.6-.72Z"/></g><ellipse class="i" cx="41.4" cy="40.63" rx="29.54" ry="28.42"/><g><path class="j" d="M25.62,47.8c.12,0,.23-.02,.35-.03h.05c-.68-2.65-1.16-5.3-1.45-7.94-1.54,.25-2.82,1.03-3.53,2.08-.37,.56-.6,1.18-.6,1.86,0,2.23,2.32,4.04,5.18,4.04Z"/><path class="l" d="M35.8,68.51c-3.51-.65-6.8-1.9-9.75-3.63-1.55-.85-3.03-1.85-4.41-2.97-.58-.57-1.13-1.16-1.65-1.76-5.02-5.09-8.1-11.97-8.1-19.54,0-5.32,1.52-10.3,4.16-14.55,2.64-4.26,6.41-7.79,10.91-10.23h0c1.06-3.34,2.42-6.56,4.03-9.61-3.73,.23-7.95-3.11-11.24-.04-2.81,2.63-1.48,7.43-4.38,9.8-2.77,2.27-8.49,1.12-10.05,4.93-1.44,3.51,2.41,6.9,1.47,10.39C5.75,35.16-.09,36.15,.02,40.63c.1,3.98,5.44,5.96,6.28,9.91,.1,.47,.11,.94,.08,1.43-.53,2.75-2.47,5.35-1.25,8.46,1.8,4.6,7.72,2.61,10.57,5.72,1.46,1.6,1.7,4.05,2.39,6.18,.15,.5,.34,.98,.58,1.42,.04,.07,.08,.15,.12,.22,.04,.07,.09,.14,.13,.21,.41,.66,.94,1.23,1.69,1.64,.67,.37,1.35,.53,2.05,.57,2.06,.26,3.92-.59,5.8-1.18,.93-.2,1.86-.29,2.75-.11,4.03,.82,6.06,6.05,10.12,6.15,1.99,.05,3.3-1,4.48-2.29-3.74-3.05-7.09-6.56-9.98-10.43Z"/><path class="j" d="M16.05,26.05c-2.64,4.26-4.16,9.23-4.16,14.55,0,7.57,3.08,14.45,8.1,19.54,1.79,1.82,3.82,3.42,6.06,4.73,2.95,1.74,6.24,2.98,9.75,3.63-4.55-6.1-7.92-13.11-9.82-20.72h0c-.12,0-.23,.02-.35,.02-2.86,0-5.18-1.81-5.18-4.04,0-.67,.22-1.3,.6-1.86,.71-1.05,1.98-1.84,3.52-2.08-.22-2.06-.34-4.16-.34-6.28,0-6.18,.96-12.13,2.73-17.72h0c-4.5,2.43-8.26,5.97-10.91,10.23Z"/></g><ellipse class="h" cx="25.61" cy="45.8" rx="5.19" ry="4.03"/><ellipse class="h" cx="56.6" cy="45.8" rx="5.19" ry="4.03"/><circle class="f" cx="53.89" cy="40.4" r="2.9"/><path class="e" d="M52.27,35.17s1.11,3.15,6.43,4.64"/><circle class="g" cx="53.49" cy="40.99" r="1.06"/><circle class="g" cx="54.83" cy="39.47" r=".66"/><ellipse class="m" cx="56.11" cy="42.85" rx="1.74" ry="1.16"/><circle class="f" cx="28.29" cy="40.38" r="2.9"/><path class="e" d="M29.91,35.16s-1.11,3.15-6.43,4.64"/><circle class="g" cx="28.7" cy="40.98" r="1.06"/><circle class="g" cx="27.36" cy="39.46" r=".66"/><ellipse class="m" cx="26.08" cy="42.84" rx="1.74" ry="1.16"/><path class="d" d="M39.97,44.65h2.53c1.74,0,3.15,1.41,3.15,3.15h0c0,.25-.2,.45-.45,.45h-7.94c-.25,0-.45-.2-.45-.45h0c0-1.74,1.42-3.16,3.16-3.16Z"/></g></g></svg>