<svg xmlns="http://www.w3.org/2000/svg" viewBox="0 0 25 26.25">
  <path class="cls-1"
    d="M22.44,14.62a1.82,1.82,0,0,1-.75-1.47,1.85,1.85,0,0,1,.75-1.48l2.16-1.58A1,1,0,0,0,25,9a13.14,13.14,0,0,0-2.62-4.53A1,1,0,0,0,21.2,4.2L18.76,5.27a1.82,1.82,0,0,1-2.55-1.48l-.29-2.67a1,1,0,0,0-.78-.86A13.39,13.39,0,0,0,9.9.26a1,1,0,0,0-.78.86L8.83,3.77a1.82,1.82,0,0,1-.91,1.39,1.84,1.84,0,0,1-1.65.09L3.83,4.17a1,1,0,0,0-1.14.25A13.19,13.19,0,0,0,.06,8.94a1,1,0,0,0,.36,1.11l2.14,1.58a1.82,1.82,0,0,1,.75,1.47,1.84,1.84,0,0,1-.75,1.48L.4,16.16a1,1,0,0,0-.35,1.11A13,13,0,0,0,2.67,21.8a1,1,0,0,0,1.13.25L6.24,21a1.82,1.82,0,0,1,2.55,1.48l.29,2.67a1,1,0,0,0,.78.86,13.74,13.74,0,0,0,2.64.26A12.51,12.51,0,0,0,15.09,26a1,1,0,0,0,.79-.86l.29-2.65a1.82,1.82,0,0,1,.91-1.39A1.84,1.84,0,0,1,18.73,21l2.44,1.08a1,1,0,0,0,1.14-.25,13.19,13.19,0,0,0,2.63-4.52,1,1,0,0,0-.36-1.11Zm-9.94,3.1a4.6,4.6,0,1,1,4.59-4.59A4.59,4.59,0,0,1,12.5,17.72Z" />
</svg>