<svg xmlns="http://www.w3.org/2000/svg" viewBox="0 0 40 40">
  <defs>
    <style>.j{fill:#f9cb6f}.k{fill:#f6ad9a}.l{fill:#feedcd}</style>
  </defs>
  <circle cx="20" cy="20" r="20" style="fill:#d7def2" />
  <path
    d="M35.72 24.44c.37-1.77 2.76-2.65 2.81-4.43.05-2.01-2.56-2.45-3.03-4.18-.42-1.56 1.3-3.08.66-4.65-.7-1.7-3.26-1.19-4.5-2.2-1.3-1.06-.7-3.21-1.96-4.39-1.67-1.56-3.89.59-5.71-.13-1.46-.57-2.14-2.41-3.79-2.63-.13-.02-.26-.02-.38-.02.12 1.35-.09 2.78-.04 4.12.02.65.14 1.35.04 2.01 3.18 0 6.4 1.44 8.7 3.49 8.77 7.79 2.89 21.63-8.8 21.88.47 1.4 1.59 2.39 2.26 3.69.63-.55 1.35-1.58 2.23-1.71 1.62-.24 3.04 1.24 4.8.58 2.1-.79 1.19-3.38 2.61-4.63 1.23-1.07 3.55-.64 4.42-2.15.85-1.47-.65-3.16-.33-4.64Z"
    class="l" />
  <path
    d="M4.28 24.44c-.37-1.77-2.76-2.65-2.81-4.43-.05-2.01 2.56-2.45 3.03-4.18.42-1.56-1.3-3.08-.66-4.65.7-1.7 3.26-1.19 4.5-2.2 1.3-1.06.7-3.21 1.96-4.39 1.67-1.56 3.89.59 5.71-.13 1.46-.57 2.14-2.41 3.79-2.63.13-.02.26-.02.38-.02-.12 1.35.09 2.78.04 4.12-.02.65-.14 1.35-.04 2.01-3.18 0-6.4 1.44-8.7 3.49-8.77 7.79-2.89 21.63 8.8 21.88-.47 1.4-1.59 2.39-2.26 3.69-.63-.55-1.35-1.58-2.23-1.71-1.62-.24-3.04 1.24-4.8.58-2.1-.79-1.19-3.38-2.61-4.63-1.23-1.07-3.55-.64-4.42-2.15-.85-1.47.65-3.16.33-4.64Z"
    class="l" />
  <path
    d="M15.42 35.43c1.8.37 2.71 2.71 4.53 2.75 2.05.05 2.5-2.51 4.27-2.97 1.6-.41 3.15 1.28 4.75.64 1.74-.69 1.21-3.19 2.25-4.4 1.09-1.27 3.28-.69 4.48-1.92 1.6-1.64-.6-3.81.13-5.59.59-1.43 2.46-2.09 2.68-3.71.02-.13.02-.25.02-.37-1.38.12-2.83-.09-4.2-.04-.66.02-1.38.13-2.05.04 0 3.11-1.47 6.26-3.56 8.52-7.95 8.59-22.1 2.83-22.35-8.61-1.43.46-2.45 1.55-3.77 2.22.56.62 1.62 1.32 1.75 2.18.24 1.59-1.27 2.97-.59 4.7.81 2.06 3.46 1.17 4.73 2.56 1.1 1.2.65 3.48 2.19 4.33 1.5.83 3.22-.63 4.74-.32Z"
    class="l" />
  <ellipse cx="19.97" cy="20" rx="13.22" ry="12.72" style="fill:#fbd17d" />
  <path
    d="m12.93 23.2.16-.01h.02a26 26 0 0 1-.65-3.55c-.69.11-1.26.46-1.58.93-.17.25-.27.53-.27.83 0 1 1.04 1.81 2.32 1.81Z"
    class="j" />
  <path
    d="M17.48 32.47a13.32 13.32 0 0 1-4.36-1.63 12.6 12.6 0 0 1-1.97-1.33c-.26-.25-.5-.52-.74-.79a12.4 12.4 0 0 1-1.76-15.26 13.02 13.02 0 0 1 4.88-4.58c.47-1.5 1.08-2.93 1.8-4.3-1.67.1-3.56-1.39-5.03-.02-1.26 1.18-.66 3.32-1.96 4.39-1.24 1.02-3.8.5-4.5 2.2-.65 1.57 1.08 3.09.66 4.65-.47 1.73-3.08 2.18-3.03 4.18.05 1.78 2.44 2.67 2.81 4.43.04.21.05.42.03.64-.24 1.23-1.11 2.4-.56 3.79.81 2.06 3.46 1.17 4.73 2.56.65.72.76 1.81 1.07 2.76.07.22.15.44.26.64l.05.1.06.09a2.02 2.02 0 0 0 1.67.98c.92.12 1.76-.26 2.6-.53.42-.09.83-.13 1.23-.05 1.8.37 2.71 2.71 4.53 2.75.89.02 1.48-.45 2-1.03a26.71 26.71 0 0 1-4.47-4.67Z"
    style="fill:#ffe7ba" />
  <path
    d="M8.64 13.47a12.3 12.3 0 0 0 1.77 15.26 13.36 13.36 0 0 0 7.07 3.74 26 26 0 0 1-4.39-9.27h-.16c-1.28 0-2.32-.81-2.32-1.81 0-.3.1-.58.27-.83.32-.47.89-.82 1.58-.93a26.03 26.03 0 0 1 1.07-10.74 13.02 13.02 0 0 0-4.88 4.58Z"
    class="j" />
  <ellipse cx="12.93" cy="22.32" class="k" rx="2.32" ry="1.8" />
  <ellipse cx="26.8" cy="22.32" class="k" rx="2.32" ry="1.8" />
  <path d="M24.96 19.28s.86-1.73 1.73 0"
    style="fill:none;stroke-linecap:round;stroke-width:.75px;stroke:#5e575e;stroke-linejoin:round" />
  <path d="M13 19.27s.86-1.73 1.73 0"
    style="stroke:#5c5a5e;fill:none;stroke-linecap:round;stroke-width:.75px;stroke-miterlimit:10" />
  <path
    d="M18.52 21.1h2.82a.4.4 0 0 1 .41.41v.38c0 .91-.74 1.64-1.64 1.64h-.36c-.91 0-1.64-.74-1.64-1.64v-.38a.4.4 0 0 1 .41-.41Z"
    style="stroke-miterlimit:10;fill:#58585e;stroke:#57575d" />
</svg>