<svg xmlns="http://www.w3.org/2000/svg" viewBox="0 0 40 40">
  <defs>
    <style>
      .e{fill:#99b1dd}.g{fill:#f086b0}.h{fill:#eadfb9}.i{fill:none;stroke:#5e575e;stroke-linecap:round;stroke-linejoin:round;stroke-width:.75px}.k{fill:#e1787e}.l{fill:#f9cb6f}.m{fill:#acd5b7}.n{fill:#d1d0d1}.o{fill:#feedcd}.q{fill:#ecb06f}.r{fill:#e8dfd9}</style>
  </defs>

  <path
    d="m1.51 22.13.43-.82.46-.8c.31-.53.6-1.06.93-1.56l.96-1.48c.31-.49.66-.94.98-1.4.33-.45.63-.9.97-1.31.66-.83 1.27-1.62 1.9-2.3l.87-.99.83-.86c.52-.54.97-1 1.37-1.36l1.22-1.15 1.27-1.09c.4-.35.91-.75 1.5-1.2l.93-.72 1.07-.75c.73-.53 1.57-1.05 2.45-1.6.43-.28 1.37.02 1.84-.25.48-.26 1.36-.11 1.87-.36.49-.24.31-1.45.81-1.7A20 20 0 0 0 .46 24.25l.21-.45c.26-.57.56-1.11.84-1.67Z"
    class="r" />
  <path
    d="M32.64 7.27c-.42.22-.83.49-1.24.73.41-.24.81-.51 1.24-.73l1.27-.68.62-.3c-.21.1-.42.19-.62.3l-1.27.68Z"
    class="n" />
  <path
    d="m34.76 8.86-1.16.71c-.39.23-.75.51-1.13.75l-.55.37-.53.4-1.04.79-.97.81c-.32.26-.61.56-.9.82-.29.27-.58.52-.84.8-.53.54-1.03 1.03-1.45 1.53l-.62.69-.52.65c-.33.41-.61.76-.83 1.07l-.69.95-.63.98c-.21.3-.43.69-.69 1.13l-.41.7-.41.8c-.3.54-.57 1.16-.86 1.8-.16.31-.28.66-.41 1-.13.35-.29.68-.4 1.04l-.37 1.09c-.12.37-.22.75-.33 1.13l-.16.56-.13.58c-.08.39-.19.76-.26 1.15l-.21 1.15c-.07.38-.1.77-.15 1.15l-.07.56-.04.56-.08 1.09c0 .72-1.91 1.12-1.87 1.78 0 .32.38 1.02.39 1.32.03.3 1.05.68 1.07.96 0 .12.51.03.52.15A20 20 0 0 0 36.1 8.12l-.13.07c-.4.22-.8.42-1.19.65Z"
    class="r" />
  <path
    d="m14.81 29.66-.32 1.27c-.1.42-.17.85-.26 1.26l-.13.62-.09.62-.18 1.21c-.07.81-.18 1.57-.19 2.3L13.59 38l.05-1.06c.01-.74.12-1.5.19-2.31l.18-1.21.09-.62.13-.62c.09-.42.16-.84.26-1.26l.32-1.27c.1-.43.25-.84.38-1.26l.19-.63-.19.63c-.12.42-.27.83-.38 1.26Z"
    class="n" />
  <path
    d="m2.62 29.25.29-.8c.2-.53.38-1.08.59-1.61l.67-1.59c.22-.53.49-1.04.73-1.56l.37-.77.4-.75c.27-.5.52-1 .81-1.48l.85-1.41c.27-.47.59-.89.87-1.33.29-.43.56-.86.86-1.25.59-.79 1.13-1.55 1.69-2.2l.78-.95.74-.83c.47-.52.87-.97 1.23-1.32l1.11-1.11-2.19-2.19-1.22 1.15c-.4.36-.85.82-1.37 1.36l-.83.86-.87.99c-.62.68-1.24 1.47-1.9 2.3-.34.41-.64.86-.97 1.31-.32.46-.67.91-.98 1.4l-.96 1.48c-.32.5-.61 1.03-.93 1.56l-.46.8-.43.82c-.28.55-.59 1.1-.84 1.67l-.21.45a20.32 20.32 0 0 0 2.03 5.42l.13-.41Z"
    class="k" />
  <path
    d="M6.35 31.21c.06-.25-.02-.54.04-.79l.23-.74c.16-.49.31-1 .49-1.5l.55-1.49c.18-.5.41-.98.61-1.46l.31-.73.34-.71c.23-.47.45-.94.69-1.39l.73-1.33c.23-.44.51-.85.75-1.26.25-.41.49-.82.75-1.19.52-.75.99-1.48 1.49-2.1l.69-.91.66-.79c.41-.5.78-.94 1.1-1.27l.99-1.08-2.1-2.1-1.1 1.11c-.36.35-.76.8-1.23 1.32l-.74.82-.78.95c-.56.65-1.1 1.41-1.68 2.2-.3.39-.57.82-.86 1.24-.28.43-.6.86-.86 1.32l-.84 1.4c-.28.48-.53.98-.8 1.47l-.4.75-.37.77c-.24.52-.51 1.03-.72 1.56l-.66 1.59c-.22.53-.39 1.07-.59 1.6l-.28.8-.17.55c.82 1.45 1.92 2.9 3.07 4.09.08-.39.25-.84.34-1.25.11-.48.21-.99.34-1.48Z"
    class="q" />
  <path
    d="M3.62 28.85c.2-.53-.19-1.43.02-1.96l.66-1.59c.22-.53.48-1.04.72-1.56l.37-.77.4-.75c.27-.5.52-1 .8-1.47l.84-1.4c.27-.47.58-.89.86-1.32.29-.43.56-.86.86-1.24.58-.79 1.13-1.54 1.68-2.2l.78-.95.74-.82c.46-.52.87-.97 1.23-1.32l1.1-1.11-.09-.09-1.11 1.11c-.36.35-.77.8-1.23 1.32l-.74.83-.78.95c-.56.65-1.11 1.41-1.69 2.2-.3.39-.57.82-.86 1.25-.28.43-.6.86-.87 1.33l-.85 1.41c-.28.48-.54.98-.81 1.48l-.4.75-.37.77c-.24.52-.51 1.03-.73 1.56l-.67 1.59c-.22.53-.4 1.08-.59 1.61l-.29.8-.13.41.23.39c.06-.18.66-.03.71-.21.09-.26.09-.73.19-.99Z"
    class="q" />
  <path
    d="M9.74 33.62c.08-.44.19-.89.28-1.34l.14-.69.18-.68c.13-.46.23-.92.38-1.38l.44-1.38c.14-.46.33-.91.5-1.36l.25-.68.29-.66c.19-.44.37-.88.57-1.3l.61-1.25c.19-.42.43-.8.64-1.19.22-.38.41-.77.64-1.13.44-.72.85-1.41 1.29-2l.6-.88.58-.76c.36-.48.68-.9.97-1.23l.88-1.05-2.1-2.1-.99 1.08c-.32.34-.68.77-1.09 1.27l-.66.79-.69.91c-.49.63-.97 1.35-1.48 2.1-.27.37-.5.78-.75 1.18-.24.41-.52.81-.75 1.26l-.73 1.32c-.24.45-.45.92-.69 1.39l-.34.7-.31.72c-.2.49-.43.96-.61 1.46l-.55 1.48c-.18.49-.32 1-.48 1.49l-.23.74-.19.74c-.12.49-.26.97-.37 1.45l-.27 1.31a21.41 21.41 0 0 0 3.68 2.96c.03-.23.29-.33.32-.57.07-.82-.1-1.86.04-2.75Z"
    class="h" />
  <path
    d="m6.35 31.21.19-.74.23-.74c.16-.49.3-1 .48-1.49l.55-1.48c.18-.5.41-.97.61-1.46l.31-.72.34-.7c.23-.47.44-.94.69-1.39l.73-1.32c.23-.44.51-.84.75-1.26.25-.41.48-.81.75-1.18.51-.75.99-1.47 1.48-2.1l.69-.91.66-.79c.41-.5.77-.93 1.09-1.27l.99-1.08-.09-.09-.99 1.08c-.32.34-.69.77-1.1 1.27l-.66.79-.69.91c-.5.63-.97 1.35-1.49 2.1-.27.37-.5.78-.75 1.19-.24.41-.52.82-.75 1.26a194 194 0 0 1-.73 1.33c-.24.45-.46.92-.69 1.39l-.34.71-.31.73c-.2.49-.43.97-.61 1.46l-.55 1.49c-.18.5-.32 1-.49 1.5l-.23.74-.2.74c-.13.49-.27.98-.38 1.46l-.25 1.2.14.15.27-1.31c.11-.48.25-.96.37-1.45Z"
    class="h" />
  <path
    d="M18.2 15.8c-.29.32-.6.74-.96 1.23l-.58.76-.6.88c-.43.6-.84 1.28-1.28 2-.23.35-.42.74-.64 1.12-.21.39-.44.77-.64 1.19l-.61 1.25c-.2.42-.38.86-.57 1.3l-.28.66-.25.68c-.16.45-.35.9-.49 1.36l-.44 1.37c-.14.46-.25.92-.37 1.38l-.18.68-.14.68c-.09.45-.2.89-.28 1.33-.13.89-.3 1.73-.36 2.55-.03.26-.12.47-.15.73 1.29.8 2.74 1.5 4.2 2v-.9l.05-1.07c.01-.74.12-1.5.19-2.3l.18-1.21.09-.62.13-.62c.09-.42.16-.84.26-1.26l.32-1.27c.1-.43.25-.84.38-1.26l.19-.63.22-.61c.15-.41.29-.82.45-1.21l.49-1.17c.15-.39.35-.75.52-1.12.18-.36.34-.73.53-1.06.37-.68.71-1.33 1.08-1.9l.51-.84.49-.73c.31-.46.58-.87.83-1.18l.76-1.01-2.19-2.19-.87 1.05Z"
    class="m" />
  <path
    d="M9.89 33.65c.08-.44.18-.88.28-1.33l.14-.68.18-.68c.13-.45.23-.92.37-1.38l.44-1.37c.14-.46.33-.9.49-1.36l.25-.68.28-.66c.19-.44.37-.88.57-1.3l.61-1.25c.19-.42.43-.8.64-1.19.22-.38.41-.77.64-1.12.44-.71.85-1.4 1.28-2l.6-.88.58-.76c.36-.48.68-.9.96-1.23l.87-1.05-.09-.09-.88 1.05c-.29.32-.6.75-.97 1.23l-.58.76-.6.88c-.43.6-.84 1.29-1.29 2-.23.35-.43.74-.64 1.13-.21.39-.45.77-.64 1.19l-.61 1.25c-.2.42-.38.87-.57 1.3l-.29.66-.25.68c-.16.46-.35.9-.5 1.36l-.44 1.38c-.14.46-.25.93-.38 1.38l-.18.68-.14.69c-.09.45-.2.9-.28 1.34-.13.89-.3 1.74-.37 2.56l-.08.7.16.1c.26-.03.6-.28.63-.54.07-.82-.32-1.88-.19-2.77Z"
    class="m" />
  <path
    d="m17.94 38.67-.03-.93c-.04-.65-.01-1.33 0-2.05.01-.36.05-.72.08-1.09l.04-.56.07-.56.15-1.15.21-1.15c.06-.39.17-.76.26-1.15l.13-.58.16-.56c.11-.37.21-.76.33-1.13l.37-1.09c.11-.37.27-.7.4-1.04.14-.34.26-.69.41-1 .29-.64.56-1.26.86-1.8l.41-.8.41-.7c.26-.44.48-.83.69-1.13l.63-.98-2.27-2.27-.76 1.01c-.25.31-.52.72-.83 1.18l-.49.73-.51.84c-.37.57-.71 1.22-1.08 1.9-.19.33-.35.7-.53 1.06-.17.37-.37.73-.52 1.12l-.49 1.17c-.16.39-.3.81-.45 1.21l-.22.61-.19.63c-.12.42-.27.83-.38 1.26l-.32 1.27c-.1.42-.17.85-.26 1.26l-.13.62-.09.62-.18 1.21c-.07.81-.18 1.57-.19 2.31l-.05 1.07v.91c1.42.48 2.93.82 4.47.97l-.04-.33-.08-.9ZM13.59 38.93v-.91.91Z"
    class="e" />
  <path
    d="M20.98 1.93c-.47.27-.9.53-1.33.81-.88.55-1.72 1.07-2.45 1.6l-1.07.75-.93.72c-.59.45-1.1.85-1.5 1.2L12.43 8.1l2.19 2.19 1.16-1.06c.36-.34.83-.73 1.36-1.17l.85-.71.98-.74c.67-.53 1.44-1.04 2.25-1.59.4-.28.84-.53 1.27-.8.44-.26.88-.56 1.35-.8.47-.26 1.12-.22 1.6-.48s1.09-.05 1.59-.3c.25-.12.23-.98.48-1.1l.08-.03a19.42 19.42 0 0 0-3.62-1.1l-1.48.72c-.49.23-1.02.55-1.5.81Z"
    class="k" />
  <path
    d="M26.8 1.99c-.5.25-1 .48-1.48.74l-1.42.78c-.47.25-.9.54-1.34.8-.43.27-.87.52-1.27.8-.81.55-1.58 1.06-2.25 1.59l-.98.74-.85.71c-.53.44-1 .83-1.36 1.17l-1.15 1.06 2.1 2.1 1.04-1.03c.32-.34.75-.72 1.23-1.15l.77-.69.89-.73c.61-.52 1.32-1.03 2.06-1.58.36-.28.77-.53 1.17-.8.41-.26.8-.56 1.24-.81l1.31-.79c.45-.26.91-.5 1.38-.75l.76-.06.82-.21c.36-.16.6-.76.96-.93-.85-.52-1.9-1.06-2.83-1.45l-.04.12-.75.37Z"
    class="q" />
  <path
    d="M26.75 1.9c-.5.25-1.01.48-1.49.74l-1.42.78c-.47.25-.91.54-1.35.8-.44.27-.87.52-1.27.8-.81.55-1.58 1.06-2.25 1.59l-.98.74-.85.71c-.54.44-1 .83-1.36 1.17l-1.16 1.06.09.09 1.15-1.06c.36-.34.82-.73 1.36-1.17l.85-.71.98-.74c.67-.53 1.44-1.04 2.25-1.59.4-.28.83-.53 1.27-.8.44-.26.91-.46 1.38-.71.47-.26 1.08-.43 1.56-.69.48-.26.96-.48 1.45-.73l.74-.35.05-.27-.14-.06-.08.03-.76.37Z"
    class="q" />
  <path
    d="m28.63 3.87-.7.38c-.46.25-.93.49-1.37.75l-1.31.79c-.43.25-.83.55-1.24.81-.4.27-.8.52-1.16.8-.74.55-1.44 1.05-2.05 1.58l-.89.73-.77.69c-.48.43-.9.81-1.23 1.15l-1.04 1.03 2.1 2.1.93-1c.29-.33.67-.7 1.1-1.12l.69-.68.8-.72c.55-.51 1.19-1.02 1.86-1.56.33-.28.7-.53 1.06-.8.37-.26.73-.56 1.13-.81l1.2-.8c.41-.27.84-.5 1.27-.76l.65-.38.67-.35c.45-.23.89-.49 1.35-.7l.97-.45a18.33 18.33 0 0 0-2.17-1.52l-1.13.53-.72.34Z"
    class="h" />
  <path
    d="m28.59 3.78-.7.38c-.46.25-.93.49-1.38.75l-1.31.79c-.44.25-.83.55-1.24.81-.4.27-.8.52-1.17.8-.74.55-1.45 1.05-2.06 1.58l-.89.73-.77.69c-.49.43-.91.81-1.23 1.15l-1.04 1.03.09.09 1.04-1.03c.32-.34.74-.71 1.23-1.15l.77-.69.89-.73c.61-.52 1.31-1.03 2.05-1.58.36-.28.76-.53 1.16-.8.4-.26.8-.56 1.24-.81L26.58 5c.44-.26.91-.5 1.37-.75l1.15-.1.35-.45c.38-.17.9-.26 1.05-.69l-.1-.06-1.07.5-.72.34Z"
    class="h" />
  <path
    d="m30.36 5.7-.65.41-.64.38c-.42.26-.86.5-1.26.76l-1.2.8c-.4.25-.76.55-1.13.81-.36.27-.73.52-1.06.8-.67.55-1.3 1.05-1.85 1.56l-.8.72-.69.68c-.43.42-.81.79-1.1 1.12l-.92 1 2.19 2.19.81-.97c.25-.32.58-.68.96-1.1l.61-.67.71-.7c.49-.51 1.06-1.01 1.65-1.55.29-.28.62-.53.95-.8.33-.26.66-.56 1.02-.81l1.09-.8c.37-.27.76-.51 1.15-.78l.59-.39.61-.36c.41-.24.83-.08 1.25-.3.42-.23 1.13-.38 1.56-.61.21-.11.23-.58.44-.68-.57-.6-1.27-1.3-1.91-1.83-.37.07-.81.32-1.15.48-.46.21-.78.42-1.23.65Z"
    class="m" />
  <path
    d="m30.34 5.67-.67.35-.65.38c-.43.26-.86.5-1.27.76l-1.2.8c-.4.25-.76.55-1.13.81-.36.27-.73.52-1.06.8-.67.55-1.31 1.05-1.86 1.56l-.8.72-.69.68c-.44.42-.81.79-1.1 1.12l-.93 1 .09.09.92-1c.29-.33.66-.7 1.1-1.12l.69-.68.8-.72c.55-.51 1.18-1.02 1.85-1.56.33-.28.69-.53 1.06-.8.37-.26.73-.56 1.13-.81l1.2-.8c.41-.27.84-.51 1.26-.76l.64-.38.67-.35c.45-.23.89-.49 1.35-.7l1.01-.48a.55.55 0 0 1-.08-.06l-.97.45c-.46.21-.9.47-1.35.7Z"
    class="m" />
  <path
    d="m33.91 6.59-1.27.68c-.42.22-.83.49-1.24.73l-.61.36-.59.39c-.39.27-.78.51-1.15.78l-1.09.8c-.36.25-.68.55-1.02.81-.33.27-.66.52-.95.8-.6.54-1.17 1.04-1.65 1.55l-.71.7-.61.67c-.38.42-.71.78-.96 1.1l-.81.97 2.27 2.27.69-.95c.21-.31.5-.66.83-1.07l.52-.65.62-.69c.42-.5.92-.99 1.45-1.53.26-.28.55-.53.84-.8.3-.26.58-.56.9-.82l.97-.81c.33-.27.69-.52 1.04-.79l.53-.4.55-.37c.37-.24.74-.52 1.13-.75l1.16-.71c.39-.23.79-.43 1.19-.65l.13-.07c-.48-.65-.99-1.26-1.54-1.84-.21.1-.42.19-.62.3Z"
    class="e" />
  <path
    d="M35.59 24.59c.37-1.77 2.76-2.65 2.81-4.43.05-2-2.56-2.45-3.03-4.18-.42-1.56 1.3-3.08.66-4.65-.7-1.7-3.26-1.19-4.5-2.2-1.3-1.06-.7-3.21-1.96-4.39-1.67-1.56-3.89.59-5.71-.13-1.46-.57-2.14-2.41-3.79-2.63-.13-.02-.26 0-.38 0 .12 1.35-.09 2.76-.04 4.1.02.65.14 1.35.04 2.01 3.18 0 6.4 1.44 8.7 3.49 8.77 7.79 2.89 21.63-8.8 21.88.47 1.4 1.59 2.39 2.26 3.69.63-.55 1.35-1.58 2.23-1.71 1.62-.24 3.03 1.24 4.8.58 2.1-.79 1.19-3.38 2.61-4.63 1.23-1.07 3.55-.64 4.42-2.15.85-1.47-.65-3.16-.33-4.64Z"
    class="o" />
  <path
    d="M4.15 24.59c-.37-1.77-2.76-2.65-2.81-4.43-.05-2 2.56-2.45 3.03-4.18.42-1.56-1.3-3.08-.66-4.65.7-1.7 3.26-1.19 4.5-2.2 1.3-1.06.7-3.21 1.96-4.39 1.67-1.56 3.89.59 5.71-.13 1.46-.57 2.14-2.41 3.79-2.63.13-.02.26 0 .38 0-.12 1.35.09 2.76.04 4.1-.02.65-.14 1.35-.04 2.01-3.18 0-6.4 1.44-8.7 3.49-8.77 7.79-2.89 21.63 8.8 21.88-.47 1.4-1.59 2.39-2.26 3.69-.63-.55-1.35-1.58-2.23-1.71-1.62-.24-3.03 1.24-4.8.58-2.1-.79-1.19-3.38-2.61-4.63-1.23-1.07-3.55-.64-4.42-2.15-.85-1.47.65-3.16.33-4.64Z"
    class="o" />
  <path
    d="M15.29 35.58c1.8.37 2.71 2.71 4.53 2.75 2.05.05 2.5-2.51 4.27-2.97 1.6-.41 3.15 1.28 4.75.64 1.74-.69 1.21-3.19 2.25-4.4 1.09-1.27 3.28-.69 4.48-1.92 1.6-1.64-.6-3.81.13-5.59.59-1.43 2.46-2.09 2.68-3.71.02-.13.02-.25.02-.37-1.38.12-2.83-.09-4.2-.04-.66.02-1.38.13-2.05.04 0 3.11-1.47 6.26-3.56 8.52-7.95 8.59-22.1 2.83-22.34-8.61-1.43.46-2.45 1.55-3.77 2.21.56.62 1.62 1.32 1.75 2.18.24 1.59-1.27 2.97-.59 4.7.81 2.06 3.46 1.17 4.73 2.56 1.1 1.2.65 3.48 2.19 4.33 1.5.83 3.22-.63 4.74-.32Z"
    class="o" />
  <ellipse cx="19.87" cy="20.15" rx="13.22" ry="12.72" style="fill:#fbd17d" />
  <path
    d="m12.8 23.37.16-.01h.02a26 26 0 0 1-.65-3.55c-.69.11-1.26.46-1.58.93-.17.25-.27.53-.27.83 0 1 1.04 1.81 2.32 1.81Z"
    class="l" />
  <path
    d="M17.35 32.64a13.32 13.32 0 0 1-4.36-1.63c-.7-.38-1.35-.83-1.97-1.33-.26-.25-.5-.52-.74-.79a12.4 12.4 0 0 1-1.76-15.26 13.02 13.02 0 0 1 4.88-4.58c.47-1.5 1.08-2.93 1.8-4.3-1.67.1-3.56-1.39-5.03-.02-1.26 1.18-.66 3.32-1.96 4.39-1.24 1.02-3.8.5-4.5 2.2-.64 1.57 1.08 3.09.66 4.65-.47 1.73-3.08 2.18-3.03 4.18.05 1.78 2.44 2.67 2.81 4.43.04.21.05.42.03.64-.24 1.23-1.11 2.4-.56 3.79.81 2.06 3.46 1.17 4.73 2.56.65.72.76 1.81 1.07 2.76.07.22.15.44.26.64l.05.1.06.09a2.02 2.02 0 0 0 1.67.98c.92.12 1.76-.26 2.6-.53.42-.09.83-.13 1.23-.05 1.8.37 2.71 2.71 4.53 2.75.89.02 1.48-.45 2-1.03a26.71 26.71 0 0 1-4.47-4.67Z"
    style="fill:#ffe7ba" />
  <path
    d="M8.51 13.64a12.3 12.3 0 0 0-1.86 6.51c0 3.39 1.34 6.81 3.59 9.08.8.81 1.75 1.19 2.75 1.78a13.3 13.3 0 0 0 4.36 1.62 26 26 0 0 1-4.39-9.27h-.16c-1.28 0-2.32-.81-2.32-1.81 0-.3.1-.58.27-.83.32-.47.89-.82 1.58-.93A26.03 26.03 0 0 1 13.4 9.05a13.02 13.02 0 0 0-4.88 4.58Z"
    class="l" />
  <ellipse cx="12.8" cy="19.49" class="g" rx="2.32" ry="1.8" />
  <ellipse cx="26.67" cy="19.49" class="g" rx="2.32" ry="1.8" />
  <path
    d="M12.23 15.7s1.58.29 2.2.96c0 0-1.33-.3-2.27.45M27.46 15.7s-1.58.29-2.2.96c0 0 1.33-.3 2.27.45"
    class="i" />
  <path
    d="M18.36 18.83h2.89c.09 0 .16.07.16.16 0 .63-.51 1.15-1.15 1.15h-.92c-.63 0-1.15-.51-1.15-1.15 0-.09.07-.16.16-.16Z"
    style="fill:#58585e;stroke:#57575d;stroke-miterlimit:10" />

</svg>