<svg xmlns="http://www.w3.org/2000/svg" viewBox="0 0 40 40">
  <defs>
    <style>.g{fill:#eef1f4}.i{fill:#5c5a5e}.j{fill:#f9cb6f}.k{fill:#f6ad9a}.l{fill:#feedcd}</style>
  </defs>

  <circle cx="20" cy="20" r="20" style="fill:#cce6de" />
  <path
    d="M36.72 25.17c.4-1.87 2.92-2.8 2.97-4.68.05-2.12-2.71-2.58-3.2-4.41-.44-1.65 1.38-3.25.7-4.91-.74-1.8-3.44-1.25-4.75-2.33-1.37-1.12-.74-3.39-2.07-4.63-1.77-1.65-4.11.62-6.03-.13-1.54-.61-2.26-2.54-4.01-2.77-.14-.02-.27-.02-.4-.02.13 1.42-.1 2.93-.04 4.35.03.68.15 1.43.04 2.12 3.36 0 6.76 1.52 9.19 3.68 9.26 8.23 3.05 22.85-9.29 23.11.5 1.48 1.67 2.53 2.39 3.9.67-.58 1.42-1.67 2.35-1.81 1.72-.25 3.21 1.31 5.07.61 2.22-.83 1.26-3.57 2.76-4.89 1.29-1.13 3.75-.68 4.67-2.27.9-1.55-.68-3.33-.35-4.9Z"
    class="k" />
  <path
    d="M3.51 25.17c-.4-1.87-2.92-2.8-2.97-4.68-.05-2.12 2.71-2.58 3.2-4.41.44-1.65-1.38-3.25-.7-4.91.74-1.8 3.44-1.25 4.75-2.33 1.37-1.12.74-3.39 2.07-4.63 1.77-1.65 4.11.62 6.03-.13 1.54-.61 2.26-2.54 4.01-2.77.14-.02.27-.02.4-.02-.13 1.42.1 2.93.04 4.35-.03.68-.15 1.43-.04 2.12-3.36 0-6.76 1.52-9.19 3.68-9.26 8.23-3.05 22.85 9.29 23.11-.5 1.48-1.67 2.53-2.39 3.9-.67-.58-1.42-1.67-2.35-1.81-1.72-.25-3.21 1.31-5.07.61-2.22-.83-1.26-3.57-2.76-4.89-1.29-1.13-3.75-.68-4.67-2.27-.9-1.55.68-3.33.35-4.9Z"
    class="k" />
  <path
    d="M15.27 36.78c1.91.39 2.86 2.86 4.78 2.91 2.16.05 2.64-2.65 4.51-3.13 1.69-.43 3.32 1.35 5.02.68 1.84-.72 1.28-3.37 2.38-4.65 1.15-1.34 3.46-.72 4.73-2.03 1.69-1.73-.64-4.02.14-5.9.62-1.51 2.6-2.21 2.83-3.92.02-.14.02-.27.02-.39-1.45.13-2.99-.1-4.44-.04-.7.02-1.46.14-2.17.04 0 3.29-1.56 6.62-3.76 8.99-8.4 9.07-23.34 2.99-23.6-9.1-1.51.49-2.58 1.64-3.98 2.34.59.65 1.71 1.4 1.85 2.31.26 1.68-1.34 3.14-.62 4.97.85 2.17 3.65 1.23 4.99 2.7 1.16 1.27.69 3.67 2.31 4.57 1.58.88 3.4-.67 5.01-.34Z"
    class="k" />
  <path
    d="M36.72 25.17c.4-1.87 2.92-2.8 2.97-4.68.05-2.12-2.71-2.58-3.2-4.41-.44-1.65 1.38-3.25.7-4.91-.74-1.8-3.44-1.25-4.75-2.33-1.37-1.12-.74-3.39-2.07-4.63-1.77-1.65-4.11.62-6.03-.13-1.54-.61-2.26-2.54-4.01-2.77-.14-.02-.27-.02-.4-.02.13 1.42-.1 2.93-.04 4.35.03.68.15 1.43.04 2.12 3.36 0 6.76 1.52 9.19 3.68 9.26 8.23 3.05 22.85-9.29 23.11.5 1.48 1.67 2.53 2.39 3.9.67-.58 1.42-1.67 2.35-1.81 1.72-.25 3.21 1.31 5.07.61 2.22-.83 1.26-3.57 2.76-4.89 1.29-1.13 3.75-.68 4.67-2.27.9-1.55-.68-3.33-.35-4.9Z"
    class="k" />
  <path
    d="M3.51 25.17c-.4-1.87-2.92-2.8-2.97-4.68-.05-2.12 2.71-2.58 3.2-4.41.44-1.65-1.38-3.25-.7-4.91.74-1.8 3.44-1.25 4.75-2.33 1.37-1.12.74-3.39 2.07-4.63 1.77-1.65 4.11.62 6.03-.13 1.54-.61 2.26-2.54 4.01-2.77.14-.02.27-.02.4-.02-.13 1.42.1 2.93.04 4.35-.03.68-.15 1.43-.04 2.12-3.36 0-6.76 1.52-9.19 3.68-9.26 8.23-3.05 22.85 9.29 23.11-.5 1.48-1.67 2.53-2.39 3.9-.67-.58-1.42-1.67-2.35-1.81-1.72-.25-3.21 1.31-5.07.61-2.22-.83-1.26-3.57-2.76-4.89-1.29-1.13-3.75-.68-4.67-2.27-.9-1.55.68-3.33.35-4.9Z"
    class="k" />
  <path
    d="M15.27 36.78c1.91.39 2.86 2.86 4.78 2.91 2.16.05 2.64-2.65 4.51-3.13 1.69-.43 3.32 1.35 5.02.68 1.84-.72 1.28-3.37 2.38-4.65 1.15-1.34 3.46-.72 4.73-2.03 1.69-1.73-.64-4.02.14-5.9.62-1.51 2.6-2.21 2.83-3.92.02-.14.02-.27.02-.39-1.45.13-2.99-.1-4.44-.04-.7.02-1.46.14-2.17.04 0 3.29-1.56 6.62-3.76 8.99-8.4 9.07-23.34 2.99-23.6-9.1-1.51.49-2.58 1.64-3.98 2.34.59.65 1.71 1.4 1.85 2.31.26 1.68-1.34 3.14-.62 4.97.85 2.17 3.65 1.23 4.99 2.7 1.16 1.27.69 3.67 2.31 4.57 1.58.88 3.4-.67 5.01-.34Z"
    class="k" />
  <path
    d="M36.72 25.17c.4-1.87 2.92-2.8 2.97-4.68.05-2.12-2.71-2.58-3.2-4.41-.44-1.65 1.38-3.25.7-4.91-.74-1.8-3.44-1.25-4.75-2.33-1.37-1.12-.74-3.39-2.07-4.63-1.77-1.65-4.11.62-6.03-.13-1.54-.61-2.26-2.54-4.01-2.77-.14-.02-.27-.02-.4-.02.13 1.42-.1 2.93-.04 4.35.03.68.15 1.43.04 2.12 3.36 0 6.76 1.52 9.19 3.68 9.26 8.23 3.05 22.85-9.29 23.11.5 1.48 1.67 2.53 2.39 3.9.67-.58 1.42-1.67 2.35-1.81 1.72-.25 3.21 1.31 5.07.61 2.22-.83 1.26-3.57 2.76-4.89 1.29-1.13 3.75-.68 4.67-2.27.9-1.55-.68-3.33-.35-4.9Z"
    class="k" />
  <path
    d="M3.51 25.17c-.4-1.87-2.92-2.8-2.97-4.68-.05-2.12 2.71-2.58 3.2-4.41.44-1.65-1.38-3.25-.7-4.91.74-1.8 3.44-1.25 4.75-2.33 1.37-1.12.74-3.39 2.07-4.63 1.77-1.65 4.11.62 6.03-.13 1.54-.61 2.26-2.54 4.01-2.77.14-.02.27-.02.4-.02-.13 1.42.1 2.93.04 4.35-.03.68-.15 1.43-.04 2.12-3.36 0-6.76 1.52-9.19 3.68-9.26 8.23-3.05 22.85 9.29 23.11-.5 1.48-1.67 2.53-2.39 3.9-.67-.58-1.42-1.67-2.35-1.81-1.72-.25-3.21 1.31-5.07.61-2.22-.83-1.26-3.57-2.76-4.89-1.29-1.13-3.75-.68-4.67-2.27-.9-1.55.68-3.33.35-4.9Z"
    class="k" />
  <path
    d="M15.27 36.78c1.91.39 2.86 2.86 4.78 2.91 2.16.05 2.64-2.65 4.51-3.13 1.69-.43 3.32 1.35 5.02.68 1.84-.72 1.28-3.37 2.38-4.65 1.15-1.34 3.46-.72 4.73-2.03 1.69-1.73-.64-4.02.14-5.9.62-1.51 2.6-2.21 2.83-3.92.02-.14.02-.27.02-.39-1.45.13-2.99-.1-4.44-.04-.7.02-1.46.14-2.17.04 0 3.29-1.56 6.62-3.76 8.99-8.4 9.07-23.34 2.99-23.6-9.1-1.51.49-2.58 1.64-3.98 2.34.59.65 1.71 1.4 1.85 2.31.26 1.68-1.34 3.14-.62 4.97.85 2.17 3.65 1.23 4.99 2.7 1.16 1.27.69 3.67 2.31 4.57 1.58.88 3.4-.67 5.01-.34Z"
    class="k" />
  <ellipse cx="20.11" cy="20.48" class="k" rx="13.96" ry="13.44" />
  <ellipse cx="20.11" cy="20.48" class="k" rx="13.96" ry="13.44" />
  <path
    d="M1.26 354.61h.02l-.07.38a.25.25 0 0 1-.16-.1.15.15 0 0 1-.03-.09c0-.1.1-.19.24-.19Z"
    class="k" />
  <path
    d="M1.26 354.61h.02l-.07.38a.25.25 0 0 1-.16-.1.15.15 0 0 1-.03-.09c0-.1.1-.19.24-.19Z"
    class="k" />
  <path
    d="M1.74 353.63c-.16.03-.32.1-.46.17l-.2.14-.08.09a1.31 1.31 0 0 0 .33 2.1c.05.15.11.3.19.45-.18-.01-.38.14-.53 0-.14-.12-.07-.35-.21-.46-.13-.11-.4-.06-.48-.24-.06-.16.12-.32.07-.49-.04-.18-.32-.23-.32-.44 0-.19.26-.28.3-.47v-.07c-.02-.13-.11-.25-.05-.4.08-.21.36-.12.5-.27.06-.07.08-.19.1-.29l.04-.06v-.02a.21.21 0 0 1 .18-.1c.1-.02.19.02.28.05h.13c.19-.04.28-.28.48-.29.09 0 .15.05.2.1-.17.15-.33.32-.46.5Z"
    class="k" />
  <path
    d="M1.74 353.63c-.16.03-.32.1-.46.17l-.2.14-.08.09a1.31 1.31 0 0 0 .33 2.1c.05.15.11.3.19.45-.18-.01-.38.14-.53 0-.14-.12-.07-.35-.21-.46-.13-.11-.4-.06-.48-.24-.06-.16.12-.32.07-.49-.04-.18-.32-.23-.32-.44 0-.19.26-.28.3-.47v-.07c-.02-.13-.11-.25-.05-.4.08-.21.36-.12.5-.27.06-.07.08-.19.1-.29l.04-.06v-.02a.21.21 0 0 1 .18-.1c.1-.02.19.02.28.05h.13c.19-.04.28-.28.48-.29.09 0 .15.05.2.1-.17.15-.33.32-.46.5Z"
    class="k" />
  <path
    d="M.81 355.64a1.3 1.3 0 0 1 .19-1.61 1.41 1.41 0 0 1 .74-.4c-.21.29-.37.62-.46.98h-.02c-.13 0-.24.09-.24.2 0 .02 0 .05.03.08.03.05.09.09.16.1a2.9 2.9 0 0 0 .12 1.13c-.22-.11-.4-.28-.52-.48Z"
    class="k" />
  <path
    d="M1.26 354.61h.02l-.07.38a.25.25 0 0 1-.16-.1.15.15 0 0 1-.03-.09c0-.1.1-.19.24-.19Z"
    class="k" />
  <path
    d="M1.26 354.61h.02l-.07.38a.25.25 0 0 1-.16-.1.15.15 0 0 1-.03-.09c0-.1.1-.19.24-.19Z"
    class="k" />
  <path
    d="M1.74 353.63c-.16.03-.32.1-.46.17l-.2.14-.08.09a1.31 1.31 0 0 0 .33 2.1c.05.15.11.3.19.45-.18-.01-.38.14-.53 0-.14-.12-.07-.35-.21-.46-.13-.11-.4-.06-.48-.24-.06-.16.12-.32.07-.49-.04-.18-.32-.23-.32-.44 0-.19.26-.28.3-.47v-.07c-.02-.13-.11-.25-.05-.4.08-.21.36-.12.5-.27.06-.07.08-.19.1-.29l.04-.06v-.02a.21.21 0 0 1 .18-.1c.1-.02.19.02.28.05h.13c.19-.04.28-.28.48-.29.09 0 .15.05.2.1-.17.15-.33.32-.46.5Z"
    class="k" />
  <path
    d="M1.74 353.63c-.16.03-.32.1-.46.17l-.2.14-.08.09a1.31 1.31 0 0 0 .33 2.1c.05.15.11.3.19.45-.18-.01-.38.14-.53 0-.14-.12-.07-.35-.21-.46-.13-.11-.4-.06-.48-.24-.06-.16.12-.32.07-.49-.04-.18-.32-.23-.32-.44 0-.19.26-.28.3-.47v-.07c-.02-.13-.11-.25-.05-.4.08-.21.36-.12.5-.27.06-.07.08-.19.1-.29l.04-.06v-.02a.21.21 0 0 1 .18-.1c.1-.02.19.02.28.05h.13c.19-.04.28-.28.48-.29.09 0 .15.05.2.1-.17.15-.33.32-.46.5Z"
    class="k" />
  <path
    d="M.81 355.64a1.3 1.3 0 0 1 .19-1.61 1.41 1.41 0 0 1 .74-.4c-.21.29-.37.62-.46.98h-.02c-.13 0-.24.09-.24.2 0 .02 0 .05.03.08.03.05.09.09.16.1a2.9 2.9 0 0 0 .12 1.13c-.22-.11-.4-.28-.52-.48Z"
    class="k" />
  <path
    d="M1.26 354.61h.02l-.07.38a.25.25 0 0 1-.16-.1.15.15 0 0 1-.03-.09c0-.1.1-.19.24-.19Z"
    class="k" />
  <path
    d="M1.26 354.61h.02l-.07.38a.25.25 0 0 1-.16-.1.15.15 0 0 1-.03-.09c0-.1.1-.19.24-.19Z"
    class="k" />
  <path
    d="M1.74 353.63c-.16.03-.32.1-.46.17l-.2.14-.08.09a1.31 1.31 0 0 0 .33 2.1c.05.15.11.3.19.45-.18-.01-.38.14-.53 0-.14-.12-.07-.35-.21-.46-.13-.11-.4-.06-.48-.24-.06-.16.12-.32.07-.49-.04-.18-.32-.23-.32-.44 0-.19.26-.28.3-.47v-.07c-.02-.13-.11-.25-.05-.4.08-.21.36-.12.5-.27.06-.07.08-.19.1-.29l.04-.06v-.02a.21.21 0 0 1 .18-.1c.1-.02.19.02.28.05h.13c.19-.04.28-.28.48-.29.09 0 .15.05.2.1-.17.15-.33.32-.46.5Z"
    class="k" />
  <path
    d="M1.74 353.63c-.16.03-.32.1-.46.17l-.2.14-.08.09a1.31 1.31 0 0 0 .33 2.1c.05.15.11.3.19.45-.18-.01-.38.14-.53 0-.14-.12-.07-.35-.21-.46-.13-.11-.4-.06-.48-.24-.06-.16.12-.32.07-.49-.04-.18-.32-.23-.32-.44 0-.19.26-.28.3-.47v-.07c-.02-.13-.11-.25-.05-.4.08-.21.36-.12.5-.27.06-.07.08-.19.1-.29l.04-.06v-.02a.21.21 0 0 1 .18-.1c.1-.02.19.02.28.05h.13c.19-.04.28-.28.48-.29.09 0 .15.05.2.1-.17.15-.33.32-.46.5Z"
    class="k" />
  <path
    d="M.81 355.64a1.3 1.3 0 0 1 .19-1.61 1.41 1.41 0 0 1 .74-.4c-.21.29-.37.62-.46.98h-.02c-.13 0-.24.09-.24.2 0 .02 0 .05.03.08.03.05.09.09.16.1a2.9 2.9 0 0 0 .12 1.13c-.22-.11-.4-.28-.52-.48Z"
    class="k" />
  <ellipse cx="12.65" cy="22.29" class="k" rx="2.45" ry="1.91" />
  <ellipse cx="12.65" cy="22.29" class="k" rx="2.45" ry="1.91" />
  <ellipse cx="27.3" cy="22.29" class="k" rx="2.45" ry="1.91" />
  <rect width="1.42" height="2.41" x="12.95" y="18.67" class="k" rx=".71" ry=".71" />
  <rect width="1.42" height="2.41" x="12.95" y="18.67" class="k" rx=".71" ry=".71" />
  <rect width="1.42" height="2.41" x="25.58" y="18.67" class="k" rx=".71" ry=".71" />
  <rect width="1.42" height="2.41" x="25.58" y="18.67" class="k" rx=".71" ry=".71" />
  <path
    d="M20.16 23.5h-.36c-.91 0-1.64-.74-1.64-1.64v-.38a.4.4 0 0 1 .41-.41h2.82a.4.4 0 0 1 .41.41v.38c0 .91-.74 1.64-1.64 1.64Z"
    class="k" />
  <path
    d="M36.72 25.17c.4-1.87 2.92-2.8 2.97-4.68.05-2.12-2.71-2.58-3.2-4.41-.44-1.65 1.38-3.25.7-4.91-.74-1.8-3.44-1.25-4.75-2.33-1.37-1.12-.74-3.39-2.07-4.63-1.77-1.65-4.11.62-6.03-.13-1.54-.61-2.26-2.54-4.01-2.77-.14-.02-.27-.02-.4-.02.13 1.42-.1 2.93-.04 4.35.03.68.15 1.43.04 2.12 3.36 0 6.76 1.52 9.19 3.68 9.26 8.23 3.05 22.85-9.29 23.11.5 1.48 1.67 2.53 2.39 3.9.67-.58 1.42-1.67 2.35-1.81 1.72-.25 3.21 1.31 5.07.61 2.22-.83 1.26-3.57 2.76-4.89 1.29-1.13 3.75-.68 4.67-2.27.9-1.55-.68-3.33-.35-4.9Z"
    class="l" />
  <path
    d="M3.51 25.17c-.4-1.87-2.92-2.8-2.97-4.68-.05-2.12 2.71-2.58 3.2-4.41.44-1.65-1.38-3.25-.7-4.91.74-1.8 3.44-1.25 4.75-2.33 1.37-1.12.74-3.39 2.07-4.63 1.77-1.65 4.11.62 6.03-.13 1.54-.61 2.26-2.54 4.01-2.77.14-.02.27-.02.4-.02-.13 1.42.1 2.93.04 4.35-.03.68-.15 1.43-.04 2.12-3.36 0-6.76 1.52-9.19 3.68-9.26 8.23-3.05 22.85 9.29 23.11-.5 1.48-1.67 2.53-2.39 3.9-.67-.58-1.42-1.67-2.35-1.81-1.72-.25-3.21 1.31-5.07.61-2.22-.83-1.26-3.57-2.76-4.89-1.29-1.13-3.75-.68-4.67-2.27-.9-1.55.68-3.33.35-4.9Z"
    class="l" />
  <path
    d="M15.27 36.78c1.91.39 2.86 2.86 4.78 2.91 2.16.05 2.64-2.65 4.51-3.13 1.69-.43 3.32 1.35 5.02.68 1.84-.72 1.28-3.37 2.38-4.65 1.15-1.34 3.46-.72 4.73-2.03 1.69-1.73-.64-4.02.14-5.9.62-1.51 2.6-2.21 2.83-3.92.02-.14.02-.27.02-.39-1.45.13-2.99-.1-4.44-.04-.7.02-1.46.14-2.17.04 0 3.29-1.56 6.62-3.76 8.99-8.4 9.07-23.34 2.99-23.6-9.1-1.51.49-2.58 1.64-3.98 2.34.59.65 1.71 1.4 1.85 2.31.26 1.68-1.34 3.14-.62 4.97.85 2.17 3.65 1.23 4.99 2.7 1.16 1.27.69 3.67 2.31 4.57 1.58.88 3.4-.67 5.01-.34Z"
    class="l" />
  <ellipse cx="20.11" cy="20.48" rx="13.96" ry="13.44" style="fill:#fbd17d" />
  <path
    d="M1.26 354.61h.02l-.07.38a.25.25 0 0 1-.16-.1.15.15 0 0 1-.03-.09c0-.1.1-.19.24-.19Z"
    class="j" />
  <path
    d="M17.44 33.67a14.2 14.2 0 0 1-4.61-1.72c-.73-.4-1.43-.87-2.09-1.4-.27-.27-.53-.55-.78-.83A13 13 0 0 1 8.1 13.6a13.78 13.78 0 0 1 5.16-4.83c.5-1.58 1.14-3.1 1.91-4.54-1.76.11-3.76-1.47-5.31-.02-1.33 1.24-.7 3.51-2.07 4.63-1.31 1.07-4.01.53-4.75 2.33-.68 1.66 1.14 3.26.7 4.91-.49 1.83-3.26 2.3-3.2 4.42.05 1.88 2.57 2.82 2.97 4.68.05.22.05.45.04.67-.25 1.3-1.17 2.53-.59 4 .85 2.17 3.65 1.23 4.99 2.7.69.76.81 1.92 1.13 2.92.07.24.16.46.27.67l.06.1.06.1a2.14 2.14 0 0 0 1.77 1.05c.97.12 1.85-.28 2.74-.56.44-.09.88-.14 1.3-.05 1.91.39 2.86 2.86 4.78 2.91.94.02 1.56-.47 2.12-1.08a27.9 27.9 0 0 1-4.72-4.93Z"
    style="fill:#ffe7ba" transform="matrix(.1 0 0 -.1 0 357)" />
  <path
    d="M.81 355.64a1.3 1.3 0 0 1 .19-1.61 1.41 1.41 0 0 1 .74-.4c-.21.29-.37.62-.46.98h-.02c-.13 0-.24.09-.24.2 0 .02 0 .05.03.08.03.05.09.09.16.1a2.9 2.9 0 0 0 .12 1.13c-.22-.11-.4-.28-.52-.48Z"
    class="j" />
  <ellipse cx="12.65" cy="22.29" class="k" rx="2.45" ry="1.91" />
  <ellipse cx="27.3" cy="22.29" class="k" rx="2.45" ry="1.91" />
  <rect width="1.42" height="2.41" x="12.95" y="18.67" class="i" rx=".71" ry=".71" />
  <rect width="1.42" height="2.41" x="25.58" y="18.67" class="i" rx=".71" ry=".71" />
  <path
    d="M20.16 23.5h-.36c-.91 0-1.64-.74-1.64-1.64v-.38a.4.4 0 0 1 .41-.41h2.82a.4.4 0 0 1 .41.41v.38c0 .91-.74 1.64-1.64 1.64Z"
    style="fill:#58585e;stroke:#57575d;stroke-miterlimit:10" />
  <path
    d="M36.73 21.03a7.4 7.4 0 0 0-5.12 2.92l-.12.16-.22-.06c-.31-.1-.68-.19-1.01-.24a5.58 5.58 0 0 0-6.3 5.68l.02.35h-.08l-.32.06a6.4 6.4 0 0 0-5.34 7.81c.21.83.58 1.6 1.07 2.27.24 0 .47.04.71.04 10.57 0 19.2-8.2 19.93-18.59a6.98 6.98 0 0 0-3.2-.39ZM12.57 36.22a6.57 6.57 0 0 0 .92-5.14 6.49 6.49 0 0 0-5.57-4.92c-.27-.03-.27-.03-.27-.21A7.03 7.03 0 0 0 6.63 23 6.49 6.49 0 0 0 .5 20.07c-.17.02-.33.06-.49.09a19.96 19.96 0 0 0 11.02 17.68 7.36 7.36 0 0 0 1.54-1.61Z"
    class="g" />

</svg>