<svg xmlns="http://www.w3.org/2000/svg" viewBox="0 0 40 40.03">
  <defs>
    <style>
      .e{stroke-miterlimit:10;fill:none;stroke:#57575d;stroke-linecap:round;stroke-width:.75px}.g{fill:#f086b0}.h{fill:#89bedb}.i{fill:#eef1f4}.k{fill:#f9cb6f}.m{fill:#feedcd}</style>
  </defs>

  <circle cx="20" cy="20" r="20" style="fill:#cfd3dc" />
  <path
    d="M16.75 2.73a6.4 6.4 0 0 0-4.42 2.52l-.1.14-.19-.05a5.25 5.25 0 0 0-.87-.21 4.83 4.83 0 0 0-5.45 4.9v.3h-.06l-.28.05a5.56 5.56 0 0 0-4.65 4.33c-.09.41-.11.62-.1 1.12a5.49 5.49 0 0 0 4.3 5.35c.61.13 0 .12 9.82.12 8.62 0 9.09 0 9.34-.04a6.33 6.33 0 0 0 5.32-7.78 6.37 6.37 0 0 0-5.44-4.81c-.27-.03-.27-.03-.27-.2a6.52 6.52 0 0 0-.99-2.88 6.3 6.3 0 0 0-5.98-2.86ZM38.59 27.41c-.04-.19-.08-.38-.13-.52a5.97 5.97 0 0 0-10.52-1.86l-.1.13-.18-.05a5.77 5.77 0 0 0-.82-.2 4.52 4.52 0 0 0-5.12 4.61v.28h-.06l-.26.04A5.18 5.18 0 0 0 20.88 40a19.97 19.97 0 0 0 17.7-12.62Z"
    class="i" />
  <path
    d="M35.45 24.37c.37-1.74 2.72-2.61 2.76-4.36.05-1.97-2.52-2.4-2.98-4.11-.41-1.53 1.28-3.03.65-4.57-.69-1.68-3.2-1.17-4.42-2.17-1.27-1.05-.69-3.16-1.93-4.31-1.65-1.54-3.82.58-5.61-.12-1.43-.56-2.1-2.37-3.73-2.58-.13-.02-.25-.02-.37-.02.12 1.32-.09 2.73-.04 4.04.02.63.14 1.33.04 1.98 3.12 0 6.29 1.42 8.55 3.43 8.62 7.65 2.84 21.26-8.64 21.5.47 1.37 1.56 2.35 2.22 3.63.62-.54 1.33-1.56 2.19-1.68 1.6-.23 2.98 1.22 4.72.57 2.06-.77 1.17-3.33 2.57-4.55 1.2-1.06 3.49-.63 4.34-2.11.84-1.44-.64-3.1-.33-4.56Z"
    class="m" />
  <path
    d="M4.55 24.37c-.37-1.74-2.72-2.61-2.76-4.36-.05-1.97 2.52-2.4 2.98-4.11.41-1.53-1.28-3.03-.65-4.57.69-1.68 3.2-1.17 4.42-2.17 1.27-1.05.69-3.16 1.93-4.31 1.65-1.54 3.82.58 5.61-.12 1.43-.56 2.1-2.37 3.73-2.58.13-.02.25-.02.37-.02-.12 1.32.09 2.73.04 4.04-.02.63-.14 1.33-.04 1.98-3.12 0-6.29 1.42-8.55 3.43-8.62 7.65-2.84 21.26 8.64 21.5-.47 1.37-1.56 2.35-2.22 3.63-.62-.54-1.33-1.56-2.19-1.68-1.6-.23-2.98 1.22-4.72.57-2.06-.77-1.17-3.33-2.57-4.55-1.2-1.06-3.49-.63-4.34-2.11-.84-1.44.64-3.1.33-4.56Z"
    class="m" />
  <path
    d="M15.5 35.17c1.77.36 2.66 2.66 4.45 2.7 2.01.05 2.45-2.47 4.2-2.92 1.57-.4 3.09 1.25 4.67.63 1.71-.67 1.19-3.14 2.21-4.33 1.07-1.25 3.22-.67 4.4-1.89 1.57-1.61-.59-3.74.13-5.49.58-1.4 2.42-2.05 2.63-3.65.02-.13.02-.25.02-.37-1.35.12-2.78-.09-4.13-.04-.65.02-1.36.13-2.02.04 0 3.06-1.45 6.15-3.5 8.37C20.74 36.66 6.85 31 6.6 19.76c-1.4.46-2.4 1.53-3.7 2.18.55.61 1.59 1.3 1.72 2.14.24 1.56-1.25 2.92-.58 4.62.79 2.02 3.4 1.15 4.65 2.51 1.08 1.18.64 3.42 2.15 4.25 1.47.82 3.17-.62 4.66-.32Z"
    class="m" />
  <ellipse cx="20" cy="20" rx="12.99" ry="12.5" style="fill:#fbd17d" />
  <path
    d="m13.12 23.15.15-.01h.02c-.3-1.16-.51-2.33-.64-3.49-.68.11-1.24.45-1.55.91-.16.24-.26.52-.26.82 0 .98 1.02 1.78 2.28 1.78Z"
    class="k" />
  <path
    d="M17.59 32.26a13.2 13.2 0 0 1-4.29-1.6c-.68-.37-1.33-.81-1.94-1.3-.25-.25-.49-.51-.73-.78A12.18 12.18 0 0 1 8.9 13.59a12.82 12.82 0 0 1 4.8-4.5 26.23 26.23 0 0 1 1.77-4.23c-1.64.1-3.5-1.37-4.94-.02C9.29 6 9.88 8.11 8.6 9.15c-1.22 1-3.73.49-4.42 2.17-.63 1.54 1.06 3.03.65 4.57-.46 1.7-3.03 2.14-2.98 4.11.05 1.75 2.39 2.62 2.76 4.36.04.21.05.41.03.63-.23 1.21-1.09 2.35-.55 3.72.79 2.02 3.4 1.15 4.65 2.51.64.7.75 1.78 1.05 2.72.07.22.15.43.25.63l.05.1.06.09a1.97 1.97 0 0 0 1.64.97c.9.11 1.73-.26 2.55-.52.41-.09.82-.13 1.21-.05 1.77.36 2.66 2.66 4.45 2.7.87.02 1.45-.44 1.97-1.01a25.8 25.8 0 0 1-4.39-4.59Z"
    style="fill:#ffe7ba" />
  <path
    d="M8.91 13.58a12.1 12.1 0 0 0 1.73 14.99 12.94 12.94 0 0 0 6.96 3.68 25.7 25.7 0 0 1-4.32-9.11h-.15c-1.26 0-2.28-.8-2.28-1.78 0-.3.1-.57.26-.82a2.3 2.3 0 0 1 1.55-.92 25.7 25.7 0 0 1 1.05-10.55 12.82 12.82 0 0 0-4.8 4.5Z"
    class="k" />
  <ellipse cx="12.06" cy="19.94" class="g" rx="1.41" ry="1.1" />
  <ellipse cx="28.59" cy="19.94" class="g" rx="1.41" ry="1.1" />
  <path
    d="m15.44 28.88-1.88-2.77v-.13c-.86-1.09-.56-3.03.9-3.53l.02-.07a2.4 2.4 0 0 1-.56-2.69c-.02-.56.14-1.12.49-1.55l-.15-2.36-.45.2-1.45.52.16 1.08v.08l.2 2.35-.03.2-.51 1.73-2.05 2.94v1.21l1.66 2.3c.14.2.22.43.24.67l.03.64c0 .1.08.23.16.29.89.61 1.94 1.2 3 1.59l.08-.17.32-.71c.1-.18.15-.39.15-.6v-.14c0-.16-.03-.31-.09-.46l-.25-.64Z"
    class="h" />
  <path
    d="M15.24 31.59c.23-.38.54-1.04.54-1.89 0-2.16-2.02-3.44-2.18-3.53M10.52 26.62c-.06-.06-.63-.65-.47-1.41.07-.32.24-.55.35-.66"
    class="h" />
  <path
    d="M14.47 22.46c-.25.39-.51.94-.59 1.62-.24 2.07 1.46 3.65 1.21 3.86-.19.16-1.33-.54-1.94-1.68a4.38 4.38 0 0 1-.22-3.33"
    class="h" />
  <path
    d="M14.21 16c.49-.02 1.76 3.7.26 6.46-.48.88-1.25 1.68-1.49 1.56-.25-.13.29-1.15.48-3.14.11-1.23-.03-1.57.17-2.81.15-.97.32-2.06.58-2.07ZM12.42 16.83c.25.39 1.2 2 .66 3.76-.34 1.1-1.16 1.92-1.23 1.87-.05-.03.15-.48 1.23-2.32M24.64 28.88l1.88-2.77v-.13c.86-1.09.56-3.03-.9-3.53l-.02-.07c.75-.64.94-1.8.56-2.69a2.32 2.32 0 0 0-.49-1.55l.15-2.36.45.2 1.45.52-.16 1.08v.08l-.2 2.35.03.2.51 1.73 2.05 2.94v1.21l-1.66 2.3c-.14.2-.22.43-.24.67l-.03.64c0 .1-.08.23-.16.29-.89.61-1.94 1.2-3 1.59l-.08-.17-.32-.71c-.1-.18-.15-.39-.15-.6v-.14c0-.16.03-.31.09-.46l.25-.64Z"
    class="h" />
  <path
    d="M24.84 31.59a3.66 3.66 0 0 1-.54-1.89c0-2.16 2.02-3.44 2.18-3.53M29.56 26.62c.06-.06.63-.65.47-1.41a1.38 1.38 0 0 0-.35-.66"
    class="h" />
  <path
    d="M25.62 22.46c.25.39.51.94.59 1.62.24 2.07-1.46 3.65-1.21 3.86.19.16 1.33-.54 1.94-1.68.77-1.44.35-2.92.22-3.33"
    class="h" />
  <path
    d="M25.87 16c-.49-.02-1.76 3.7-.26 6.46.48.88 1.25 1.68 1.49 1.56.25-.13-.29-1.15-.48-3.14-.11-1.23.03-1.57-.17-2.81-.15-.97-.32-2.06-.58-2.07ZM27.66 16.83c-.25.39-1.2 2-.66 3.76.34 1.1 1.16 1.92 1.23 1.87.05-.03-.15-.48-1.23-2.32"
    class="h" />
  <path d="M12.15 16.67s2.79-.47 3.8-2.11M28.59 16.85s-2.79-.47-3.8-2.11" class="e" />
  <path d="M18.37 20.68s1.83-1.61 4.13-.07"
    style="stroke-linejoin:round;fill:none;stroke:#57575d;stroke-linecap:round;stroke-width:.75px" />

</svg>